<?xml version="1.0" encoding="utf-8"?>
<!-- Generator: Adobe Illustrator 25.0.0, SVG Export Plug-In . SVG Version: 6.00 Build 0)  -->
<svg version="1.1" id="Layer_1" xmlns="http://www.w3.org/2000/svg" xmlns:xlink="http://www.w3.org/1999/xlink" x="0px" y="0px"
	 viewBox="0 0 1107.93 591.99" style="enable-background:new 0 0 1107.93 591.99;" xml:space="preserve">
<style type="text/css">
	.st0{fill:#3C7A2B;}
	.st1{fill-rule:evenodd;clip-rule:evenodd;fill:#3C7A2B;}
</style>
<g>
	<path class="st0" d="M983.19,250.79c0-33.96,28.42-62.37,62.37-62.37s62.37,28.41,62.37,62.37s-28.42,62.37-62.37,62.37
		S983.19,284.75,983.19,250.79z"/>
	<rect x="993.59" y="329.81" class="st0" width="103.96" height="75.61"/>
	<path class="st0" d="M228.7,188.05v49.94c0,49.21-26.34,71.38-64.45,71.38c-33.27,0-60.29-20.1-60.29-63.07v-58.26H0v73.5
		C0,355.1,59.6,405,129.6,405c45.74,0,80.39-16.63,99.11-42.28v42.68h103.96V188.05H228.7z"/>
	<polygon class="st0" points="899.48,125.67 758.1,125.67 688.05,405.42 803.52,405.42 828.79,237.36 854.07,405.42 969.54,405.42 	
		"/>
	<path class="st0" d="M517.55,155.02c-88.62,0-160.46,71.84-160.46,160.46l0,0c0,88.62,71.84,160.46,160.46,160.46l0,0
		c88.62,0,160.46-71.84,160.46-160.46V155.02H517.55z M588.38,315.48c0,39.12-31.71,70.82-70.82,70.82l0,0
		c-39.11,0-70.82-31.71-70.82-70.82l0,0c0-39.12,31.71-70.82,70.82-70.82h70.82V315.48z"/>
	<path class="st0" d="M671.24,423.76v108.48c0,0-122.04,126.56-291.55,11.3l45.25-61.65C424.94,481.89,561.62,571.8,671.24,423.76z"
		/>
	<path class="st0" d="M671.24,423.76"/>
	<g id="XMLID_234_">
		<g id="XMLID_243_">
			<path id="XMLID_308_" class="st1" d="M118.15,0c14.23,8.72,22.92,24.32,22.92,33.53c0,12.55-9.91,16.14-16.74,24.73
				c-5.24,7.18-4.17,23.77-4.17,23.77h-3.66c0,0,1.12-15.18-4.37-23.18c-5.42-8.6-16.67-11.77-16.67-25.67
				C95.47,23.8,106.04,6.37,118.15,0z"/>
			<path id="XMLID_307_" class="st1" d="M172.61,95.2c0.61,0,6.66-0.04,10.29,0.34c2.92,0.29,5.87,0.94,8.86,1.69
				c0.27,7.13,0.27,8.56-0.03,10.29c-5.41-1.72-9.19-2.75-13.73-3.04c-3.17-0.18-6.7-0.47-7.31-0.47c-15.18,0-23.29,10-23.29,23.44
				c0,0.59,0,8.53,0,9.12c0,10.05,5.53,20.17,19.35,20.17c1.95,0,7.24,0.12,11.34-1.65c0.61-6.35,0.53-11.66,0.53-12.25
				c0-3.59-0.39-8.24-3.89-11.47h18.98c-0.46,2.9-1.22,14.31-1.11,15.96l0.51,14.05c-7.27,2.28-15.77,3.65-21.85,4.18
				c-9.56,0.84-19.27-0.61-26.94-5.06c-10.36-6-14.59-15.98-14.59-29.08c0-25.28,17.67-31.75,20.08-32.81
				c5.27-2.29,10.52-2.94,16.34-3.3C171.27,95.03,172,95.2,172.61,95.2z"/>
			<path id="XMLID_306_" class="st1" d="M235.39,96.38c8.78,0,20.12,5.78,20.12,17.77c0,6.49-1.89,12.53-8.17,15.53
				c-2.59,1.24-5.61,2.47-9.87,3.41c1.42,3.17,2.55,5.63,3.95,7.99c4.67,7.88,8.81,16.97,17.42,24.03
				c-1.79,0.56-5.03,1.21-6.98,1.27c-3.66,0.15-9.55,0.52-12.43-2.69c-9.51-10.59-18.9-33.42-18.9-33.42
				c12.43,0,19.87-6.24,19.06-14.14c-0.74-7.19-5.28-11.63-15.12-11.41c-3.16,0.07-7.49,1.04-8.45,1.59v45.26
				c0,0.59,0.89,12.61,0.86,13.06l-17.56-0.03c0,0,1.83-10.77,1.83-14.67l0.04-43.9c-0.13-2.82-1.26-9.64-1.26-9.64h30.11
				C232.84,96.15,235.39,96.38,235.39,96.38z"/>
			<path id="XMLID_260_" class="st1" d="M315.65,130.02c0,8.88-1.62,28.02-19.55,28.02c-14.75,0-19.95-10-19.95-25.77
				c0-18.59,6.63-27.77,19.59-27.77C313.14,104.5,315.65,119.05,315.65,130.02z M295.74,95.32c20.48,0,37.22,11.77,37.22,32.34
				c0,23.9-11.86,38.96-36.24,38.96c-18.78,0-38.37-7.53-38.37-35.53C258.35,105.91,278.19,95.32,295.74,95.32z M57.66,96.77v10.32
				c0,0-8.8-3.09-18.6-3.07c-12.14,0.02-20.15,6.62-20.15,18.59c0,0.47-0.17,1.26,0.65,1.89H39.6c1.83-0.01,6.54-1.16,6.54-1.16
				v11.43c-0.19,0.27-3.49-0.63-6.15-0.63l-19.01-0.24c-2.28,0.15-2.08,0.38-2.08,1.41c0,0.59,0.24,1.77,0.24,2.35
				c0,12.38,10.52,18.59,20.6,18.59c5.91,0,12.4-1.99,18.87-4.45c0,0-2.48,8.85-2.77,10.28c-1.13,0.68-9.56,3.09-15.89,3.35
				c-7.51,0.3-11.1,0.49-19.03-3.04c-13.69-6.1-20.12-16.71-20.08-31.87v-3.35c0-19.41,14.96-31.02,34.05-32.09
				C45.1,94.5,54.88,95.87,57.66,96.77z M100.31,53.67c7.07,6.12,10.97,14.35,11.25,22.81c0.1,3.03,1.3,12.13,1.94,19.6l10.34,0.18
				c0-7.64,0.89-17.07,0.89-17.07c0.94-8.93,2.19-15.34,6.27-20.51c6.89-8.74,19.16-12.99,35.3-13.97l12.02-0.22
				c0.29,0.52,0.19,25.92-12.55,38.21c-7.73,8.16-23.64,13.55-32.87,13.55c-4.39,0.12-6.34,0.24-6.95,0.24
				c-3.23,0-1.71,2.99-1.95,4.13L123.84,164h-14.41c-9.49-16.89-21.46-29.58-34.74-44.69l-0.47,21.44l0.98,23.2H63.13
				c-0.28-0.18-0.33-0.39-0.33-0.98s1.71-13.74,1.71-14.32l0.33-26.61l-1.27-25.76h13.8c10.07,15.71,22.31,31.5,35.75,45.41
				c0.41-0.23,0.04-43.43,0.04-43.43c-0.34-1.91-0.4-1.77-1.71-1.77c-0.61,0-0.73-0.24-6.35-0.24c-11.74-1.44-26.84-4.4-36.36-14.96
				C57.52,68.85,57.76,44.37,57.76,44.37C58.54,44.1,88.96,43.85,100.31,53.67z"/>
		</g>
		<path id="XMLID_235_" class="st1" d="M328.74,92.14c-1.02,1.04-1.53,2.28-1.53,3.71c0,1.48,0.52,2.75,1.56,3.78
			c1.03,1.04,2.28,1.56,3.74,1.56c1.46,0,2.7-0.52,3.73-1.57c1.03-1.05,1.55-2.31,1.55-3.78c0-1.43-0.51-2.66-1.54-3.71
			c-1.04-1.07-2.28-1.6-3.74-1.6C331.04,90.54,329.78,91.07,328.74,92.14z M337,100.45c-1.25,1.21-2.74,1.81-4.49,1.81
			c-1.8,0-3.32-0.62-4.56-1.85c-1.24-1.23-1.85-2.75-1.85-4.56c0-1.87,0.67-3.43,2-4.67c1.25-1.16,2.72-1.74,4.41-1.74
			c1.77,0,3.28,0.63,4.53,1.88s1.88,2.76,1.88,4.53C338.92,97.67,338.28,99.21,337,100.45z M333.09,93.71
			c-0.26-0.1-0.62-0.15-1.08-0.15h-0.45v2.06h0.72c0.43,0,0.77-0.09,1.02-0.26c0.24-0.17,0.37-0.45,0.37-0.84
			C333.67,94.13,333.48,93.86,333.09,93.71z M329.7,99.42v-7.11c0.44,0,1.1,0,1.97,0.01c0.88,0,1.37,0,1.47,0.01
			c0.56,0.04,1.03,0.16,1.4,0.37c0.63,0.35,0.95,0.91,0.95,1.7c0,0.6-0.17,1.03-0.5,1.3s-0.74,0.43-1.23,0.48
			c0.45,0.09,0.78,0.23,1.01,0.41c0.42,0.34,0.63,0.87,0.63,1.59v0.64c0,0.07,0,0.14,0.01,0.21s0.03,0.14,0.05,0.21l0.06,0.2h-1.77
			c-0.06-0.23-0.09-0.55-0.11-0.98c-0.02-0.43-0.05-0.72-0.11-0.87c-0.09-0.25-0.27-0.42-0.52-0.52c-0.14-0.06-0.35-0.1-0.64-0.11
			l-0.41-0.03h-0.39v2.51h-1.87V99.42z"/>
	</g>
</g>
</svg>
